<?xml version="1.0" encoding="UTF-8" standalone="yes"?>
<svg version="1.2" baseProfile="tiny-ps" viewBox="0 0 300 300" xmlns="http://www.w3.org/2000/svg">
  <title>bimi-svg-tiny-12-ps</title>
  <g>
    <g fill="#89d2ee" transform="matrix(.1 0 0 -.1 0 300)">
      <path d="M2195 1827c-89-30-154-84-194-163l-20-42-10-58-9-59 9-58c5-32 19-78 30-103l21-44 49-44 50-45 52-17 52-18h150l51 17 50 17 35 29 34 29-38 39-38 40-56-29-56-28h-108l-37 16c-20 8-52 29-69 46l-33 32-11 35-12 36v57l1 57 23 42 24 42 38 31 39 31 76 3 77 4 49-27 49-26 39 38 38 38-22 18c-13 10-45 30-73 44l-50 26-80 4-80 3-40-13zM590 1511v-321h377l44 15c52 19 87 49 105 92l14 32v82l-15 28c-8 16-28 41-46 55l-31 26 25 20c13 11 30 33 37 50l13 30-5 49-5 48-22 32-23 31-41 23-42 22-192 3-193 4v-321zm374 180 26-24v-54l-21-19-21-19-119-3-119-4v154l114-4 114-3 26-24zm22-264 24-28v-46l-26-24-26-24-124-4-124-3v164l126-4 126-3 24-28zm404 356c-12-26-75-167-141-313-65-146-119-269-119-273v-7h127l26 60 26 60h333l26-60 27-60h205v640h-120l-1-262v-263l-15 30c-7 17-60 134-117 260l-103 230-66 3-67 3-21-48zm149-235c28-64 51-119 51-122s-52-6-116-6h-116l4 9c2 4 28 65 58 134l54 127 7-13c4-6 30-65 58-129z"/>
    </g>
    <g fill="#58bae3" transform="matrix(.1 0 0 -.1 0 300)">
      <path d="M2195 1827c-89-30-154-84-194-163l-20-42-10-58-9-59 9-58c5-32 19-78 30-103l21-44 49-44 50-45 52-17 52-18h150l51 17 50 17 35 29 34 29-38 39-38 40-56-29-56-28h-108l-37 16c-20 8-52 29-69 46l-33 32-11 35-12 36v57l1 57 23 42 24 42 38 31 39 31 76 3 77 4 49-27 49-26 39 38 38 38-22 18c-13 10-45 30-73 44l-50 26-80 4-80 3-40-13zM590 1511v-321h377l44 15c52 19 87 49 105 92l14 32v82l-15 28c-8 16-28 41-46 55l-31 26 25 20c13 11 30 33 37 50l13 30-5 49-5 48-22 32-23 31-41 23-42 22-192 3-193 4v-321zm374 180 26-24v-54l-21-19-21-19-119-3-119-4v154l114-4 114-3 26-24zm22-264 24-28v-46l-26-24-26-24-124-4-124-3v164l126-4 126-3 24-28zm415 381c-5-13-25-58-44-100-20-43-34-78-32-78 3 0-4-15-15-32-11-18-20-38-20-45v-12l18 4c9 2 23 5 30 7l13 3 2-119 2-119 14-5 14-5-9 14-8 14 15-11 14-12 118-1 117-1v157l28 24 27 24-22-26-23-25v-76c0-42 3-85 8-95l7-18 6 100 6 100v-218l22-4 21-3v213l-17 14-18 14 14-7 14-7-5 9c-3 5-20 39-37 77l-31 67h-22l6 15 5 15-11 25-11 25-41 1-41 2 37 6 38 6-25 53-24 52h-131l-9-22zm64-8-6-10 13-1 13-1-13-5-12-5 6-11 7-12-14 13-13 12-36-32-35-33 45 48c43 45 58 58 45 37zm100-40 6-10h-10c-6 0-11 5-11 10 0 6 2 10 4 10 3 0 8-4 11-10zm-55-36c0-8-4-14-9-14h-10l2 19 1 20 8-5c4-3 8-12 8-20zm-46-44h8l-7 18-6 17 13-13c7-7 13-16 13-20s11-33 24-64l23-58 17-1 16-1-11-4-12-5 5-19c3-11 9-20 12-20 13 0 49 44 54 65l5 20 1-21 1-20-29-28-29-28 5-14 5-14 22-1 21-1-17-5c-23-6-23-17-1-39l18-17-77 7-76 7-6-13-6-13-6 13-6 12h-39c-21 0-39 2-39 4 0 3 16 39 35 82l35 76-6 9-5 9h9c5 0 15 14 22 30l13 31-24 27-24 27 21-18c11-9 24-17 28-17zm63-2-5-13-1 19c-1 11 2 17 5 13 3-3 4-12 1-19zm76-15c-7-2-21-2-30 0l-18 5h60l-12-5zm-237-15 7-13-8 7-8 8-16-13-16-12 14 18c16 20 18 21 27 5zm65-15 14-18-17 14c-10 7-18 15-18 17 0 8 8 3 21-13zm-83-23c-7-10-14-17-17-15-4 4 18 35 25 35 2 0-1-9-8-20zm234-52-11-11 6 24 7 23 4-13c2-7-1-18-6-23zm32-47-39-36 33 35c17 20 32 42 33 50l1 15 5-14 5-13-38-37zm56 15c0-2-8-10-17-17l-18-14 14 18c13 16 21 21 21 13zm-196-164 4-7-39 3c-21 2-39 6-39 8 0 7 69 4 74-4zm36-22c0-5-5-10-11-10h-10l6 10c3 6 8 10 11 10 2 0 4-4 4-10zm273 475c-9-25 2-27 22-5l18 20h-34l-6-15zm24-13-27-28v-38l38 35 37 34-37-40-36-40v-28l1-29 39 39 39 38 20-3 19-3v21h-17l-18 1 18 13 17 13-1 24v24l-8-20c-5-11-19-29-32-40l-24-20 23 26c23 26 29 49 13 49-5 0-12-6-14-12l-5-13-1 13c-1 19-15 14-44-16zm23-65c0-2-10-12-22-23l-23-19 19 23c18 21 26 27 26 19zm-5-37-29-30h101l1 30 1 30h-45l-29-30zm-45-49v-10l43-4 42-4-42-1-43-2 3-47 3-48 59-1 60-1-55 7-55 7 55 3 55 3-45 4c-25 3-49 8-53 12l-8 8 48-4 49-5v92h-116v-9zm-443-108c-4-3-18-7-33-7l-26-2-33-74c-18-41-31-78-28-82 2-5 0-8-5-8-10 0-35-50-28-57 3-3-2-12-10-21l-16-15 5-18 5-19-10-7-11-6 8 13 8 13-11-7c-19-11-14-24 11-29l22-4-27-2-28-1v-20h101l20 10 19 11 1 32 1 32 5-14 6-14 12 29 12 29-10 15-11 15 14-12c8-7 21-13 30-13h15v120c0 66 0 120-1 120 0 0-4-3-7-7zm-65-228c2 3 5-2 5-10 0-19 0-19-23 7l-19 23 16-13c9-6 18-10 21-7zm-67-55c10-11 16-20 13-20s-13 9-23 20-16 20-13 20 13-9 23-20zm36 3 14-18-17 14c-10 7-18 15-18 17 0 8 8 3 21-13zm539 241v-16l18 13 17 14-17-20-16-20-4-116-3-117-48 2-48 1 5-20c3-11 6-22 6-25s45-5 100-5h100v16l-12-7-13-7 17 19 17 20-6 22-5 22h-32l-31 1-17 13-18 13v152l53 3 52 3 3 28 3 27h-41l-1-27-1-28-8 30-7 30-5-30-5-30-2 28-1 27h-50v-16zm80-248c0-3-4-8-10-11l-10-6v10c0 6 5 11 10 11 6 0 10-2 10-4zm-60 183v-12l40 6 40 5v-18h-80v-108l14-11 15-12 33 3c18 2 32 6 31 11-2 4-3 39-3 77v70h-90v-11zm76-64 1-30-4 28-4 27h-49v-66l13-14 12-14-17 13-18 13v33c0 39 7 47 40 43l25-3 1-30zm-24-12c-2-12-6-23-7-23s-5 11-7 23l-5 24h24l-5-24zm-131-23-1-86h40l-1 46v45l-19 40-19 40v-85z"/>
    </g>
    <g fill="#00e3e8" transform="matrix(.1 0 0 -.1 0 300)">
      <path d="M2195 1827c-89-30-154-84-194-163l-20-42-10-58-9-59 9-58c5-32 19-78 30-103l21-44 49-44 50-45 52-17 52-18h150l51 17 50 17 35 29 34 29-38 39-38 40-56-29-56-28h-108l-37 16c-20 8-52 29-69 46l-33 32-11 35-12 36v57l1 57 23 42 24 42 38 31 39 31 76 3 77 4 49-27 49-26 39 38 38 38-22 18c-13 10-45 30-73 44l-50 26-80 4-80 3-40-13zM590 1511v-321h377l44 15c52 19 87 49 105 92l14 32v82l-15 28c-8 16-28 41-46 55l-31 26 25 20c13 11 30 33 37 50l13 30-5 49-5 48-22 32-23 31-41 23-42 22-192 3-193 4v-321zm374 180 26-24v-54l-21-19-21-19-119-3-119-4v154l114-4 114-3 26-24zm22-264 24-28v-46l-26-24-26-24-124-4-124-3v164l126-4 126-3 24-28zm427 371c-17-18-36-44-43-58l-13-25 29 25c16 14 33 31 37 38 4 6 13 12 19 12s-17-29-50-64c-34-35-63-69-63-75-3-20-5-26-17-48l-13-23 68 2 68 1-60 6-60 6 27 21c15 12 25 24 21 28-3 3-13 0-22-7l-16-12 14 18c7 9 15 17 16 17s20-14 41-31l39-31 12 29 12 28-13 20c-8 11-22 22-32 24l-18 3 30-27 29-27-33 22-33 22 12 14 11 14 26-20c34-27 43-15 9 13l-26 22 23 29 23 28 22-7c11-3 21-11 21-16 0-12-17-12-25 1l-6 10-14-13-13-12 10-12c6-7 15-13 20-13h10l-12 15-12 15h9c13 0 33-22 33-37 0-20-21-16-47 9l-23 21v-10c0-6 14-23 32-38l32-27 2-28c1-15 5-37 9-50l7-22 24 5 24 4v-8c0-4-10-10-22-12l-23-4 28-2 27-1 1 23 1 22 5-18 5-19-23-24-22-24 6-7 7-6 25 23c13 12 26 32 28 44l4 21 2-26 1-25-31-23c-17-13-28-25-25-28s21 6 40 21l35 26 4 22 4 23 1-25 1-25-41-32-40-33 28-1 29-1-25-8-25-8 23-1 23-1-6-10-6-10-10 5-9 6v-10c0-5 8-12 18-14l17-5-60-3-60-2 60-7 60-7-57-1-58-2v-10c0-6 3-9 8-9 4 1 26 1 50 0l42-1v-60h20v158l18 13 17 13-12-14-13-14v-161l10-15 10-15 1 103c1 56 2 108 3 115l2 12 12-2 11-3-5 15-6 15-10-6-10-7 7 22 6 21-26 26-26 26-49-4-50-3v17l61-4 61-4-18 13-19 14-42-3-43-3v7c0 4 24 9 53 11l52 3-52 2-53 2v40l43 2 42 1-45 7-45 6 40 5 40 6-37 1c-42 2-47 8-20 28l17 13-12 1c-19 0-16 20 2 20h16l-11 20-11 20h-95l-31-32zm97 8c0-2-13-6-30-8l-30-5v17h30c17 0 30-2 30-4zm-94-158 29-31-37 28c-39 28-45 35-30 35 5 0 21-14 38-32zm229-148c-10-11-23-20-28-20h-10l18 20c10 11 23 20 28 20h10l-18-20zm138 315c-9-25 2-27 22-5l18 20h-34l-6-15zm24-15c-15-16-27-35-27-42v-12l35 34c19 19 35 38 35 42 0 16-17 7-43-22zm53 17c0-7-18-31-40-52s-40-44-40-49c0-6 23 12 50 39 47 47 62 75 40 75-5 0-10-6-10-13zm31 0-1-18-55-58c-30-32-55-60-55-63 0-2 27-6 60-7l60-2v23l-50-4-49-3 9 9c5 5 26 10 46 10l37 1 4 13 5 12h-24c-13 0-29-5-36-12l-12-12v11c0 6 16 25 36 42l35 32-4 22-4 22-2-18zm-16-67-6-10h15c9 0 16 5 16 10 0 6-4 10-9 10-6 0-13-4-16-10zm-345-70v-10h80v20h-80v-10zm-44-13c3-10 9-15 12-12s0 11-7 18l-12 12 7-18zm294-16v-10l48-4 47-3-47-2-48-2v-20h110v9c0 5 3 16 6 25l6 16h-122v-9zm-405-31 6-10-14 6-15 5-7-10-6-11h73l-12 15c-7 8-17 15-22 15h-9l6-10zm408-40-2-20 23-6c13-3 40-4 62-1l39 4-52 1-52 2-6 9-5 10 52-3 53-3-37 4-38 4v10c0 5-8 9-18 9h-18l-1-20zm70 13c9-2 23-2 30 0l12 5h-60l18-5zm-557-145v-123l-3 103-4 102h-19v-197l19-17 19-17 7 10c3 6 4 15 1 19-3 5-6 57-7 117l-2 110 37 1 36 2v-83l20 44c11 24 20 45 20 47s-28 4-62 4h-63l1-122zm36 90-12-12v-195l13-8c6-4 20-9 30-10l18-3-6 10c-3 6-6 55-6 109v100l-13 10-12 11-12-12zm15-165-3-58v230l3-57c2-32 2-84 0-115zm442 164 8-8 49 3 49 3-57 5-57 5 8-8zm-9-33v-16l15 12c9 7 18 10 21 7s-4-10-15-17l-21-11 2-82 2-82 3 72 4 72 52 3 52 3 1 25 1 25-4-22c-2-13-9-23-14-23h-9l-1 28-1 27-8-30-8-30-2 30-2 30-8-30-8-30-1 28-1 27h-50v-16zm-98-26-12-12 2-110 2-111 6 115 6 115 2-107 2-108h20v210h-21l6 10c8 14 2 13-13-2zm-431-8c-1-8-2-44-1-80l2-65 11-15 12-15-17 14-18 13-1 62v61l-10-25c-6-14-11-29-12-35-1-5-6-13-12-17l-10-8h13c6 0 12-4 12-10v-9l-14 5-13 5-7-16-6-16 35-30 35-31-1-22-2-21-4 22-4 23-30 21c-38 27-47 20-14-11l25-23-1-21-1-21-5 20c-5 22-32 55-43 55-4 0-10-9-13-20l-5-20 9 6 10 6 14-12c8-7 15-18 15-26v-13l-35 6-35 6v-23h101l20 10 19 11v50l-27 25-28 26 33-22c17-12 32-27 33-33v-12l9 20 8 20-19 20-18 20-4 80c-1 44-4 73-6 65zm-34-146c-3-3-12-4-19-1l-13 5 19 1c11 1 17-2 13-5zm583 115v-12l40 6 40 5v-18h-80v-91l10-20 11-19 37 1 37 1-31 7c-17 4-36 11-42 15l-12 7v89h70v-71l-15-6c-21-7-25-2-28 36-1 17-6 31-10 31h-8l3-37 3-38 33-3 32-3v131h-90v-11zm-418-71 3-53 78-2 78-1-13 15-12 15-3-8-3-9-55 3-55 4v88h-21l3-52zm29 30-1-28 33 1 32 2-27 4-27 4-4 22-4 22-2-27zm19 10v-18h40v35l-10-15-10-15-10 15-10 15v-17zm52-20 3-33-37 3-38 4v-23l43 3 42 3 3 38 3 37h-23l4-32zm238-48c0-46 2-81 4-79 8 7 10 149 3 156l-7 6v-83zm133 30-2-30h19v30c0 39-14 39-17 0zm-342-12c2-2 17-14 33-28s26-19 22-12l-7 12h8c5 0 14-5 21-12l12-12v54h-47c-25 0-44-1-42-2zm242-53v-50l4 28c2 15 2 37 0 50l-4 22v-50zm19-32 3-37-42-1c-23 0-45-4-49-8l-9-8 93 2 93 2 9-9 9-9-94 3-95 3v-16h200l-6 17-5 18h10c6 0 11 3 11 8v8l-38-4-38-4-24 21-25 20 12 1c6 0 15-4 18-10l6-10h79v20h-32l-33 1-19 14c-11 8-24 15-29 15h-9l4-37zm-632-47c0-2 11-6 25-8l24-5-5 8c-5 9-44 13-44 5z"/>
    </g>
    <g fill="#04c4e5" transform="matrix(.1 0 0 -.1 0 300)">
      <path d="M590 1511v-321h377l44 15c52 19 87 49 105 92l14 32v82l-15 28c-8 16-28 41-46 55l-31 26 25 20c13 11 30 33 37 50l13 30-5 49-5 48-22 32-23 31-41 23-42 22-192 3-193 4v-321zm374 180 26-24v-54l-21-19-21-19-119-3-119-4v154l114-4 114-3 26-24zm22-264 24-28v-46l-26-24-26-24-124-4-124-3v164l126-4 126-3 24-28zm427 371c-17-18-36-44-43-58l-13-25 29 25c16 14 33 31 37 38 4 6 13 12 19 12s-17-29-50-64c-34-35-63-69-63-75-3-20-5-26-17-48l-13-23 68 2 68 1-60 6-60 6 27 21c15 12 25 24 21 28-3 3-13 0-22-7l-16-12 14 18c7 9 15 17 16 17s20-14 41-31l39-31 12 29 12 28-13 20c-8 11-22 22-32 24l-18 3 30-27 29-27-33 22-33 22 12 14 11 14 26-20c34-27 43-15 9 13l-26 22 23 29 23 28 22-7c11-3 21-11 21-16 0-12-17-12-25 1l-6 10-14-13-13-12 10-12c6-7 15-13 20-13h10l-12 15-12 15h9c13 0 33-22 33-37 0-20-21-16-47 9l-23 21v-10c0-6 14-23 32-38l32-27 2-28c1-15 5-37 9-50l7-22 24 5 24 4v-8c0-4-10-10-22-12l-23-4 28-2 27-1 1 23 1 22 5-18 5-19-23-24-22-24 6-7 7-6 25 23c13 12 26 32 28 44l4 21 2-26 1-25-31-23c-17-13-28-25-25-28s21 6 40 21l35 26 4 22 4 23 1-25 1-25-41-32-40-33 28-1 29-1-25-8-25-8 23-1 23-1-6-10-6-10-10 5-9 6v-10c0-5 8-12 18-14l17-5-60-3-60-2 60-7 60-7-57-1-58-2v-10c0-6 3-9 8-9 4 1 26 1 50 0l42-1v-60h20v158l18 13 17 13-12-14-13-14v-161l10-15 10-15 1 103c1 56 2 108 3 115l2 12 12-2 11-3-5 15-6 15-10-6-10-7 7 22 6 21-26 26-26 26-49-4-50-3v17l61-4 61-4-18 13-19 14-42-3-43-3v7c0 4 24 9 53 11l52 3-52 2-53 2v40l43 2 42 1-45 7-45 6 40 5 40 6-37 1c-42 2-47 8-20 28l17 13-12 1c-19 0-16 20 2 20h16l-11 20-11 20h-95l-31-32zm97 8c0-2-13-6-30-8l-30-5v17h30c17 0 30-2 30-4zm-94-158 29-31-37 28c-39 28-45 35-30 35 5 0 21-14 38-32zm229-148c-10-11-23-20-28-20h-10l18 20c10 11 23 20 28 20h10l-18-20zm138 315c-9-25 2-27 22-5l18 20h-34l-6-15zm24-15c-15-16-27-35-27-42v-12l35 34c19 19 35 38 35 42 0 16-17 7-43-22zm53 17c0-7-18-31-40-52s-40-44-40-49c0-6 23 12 50 39 47 47 62 75 40 75-5 0-10-6-10-13zm31 0-1-18-55-58c-30-32-55-60-55-63 0-2 27-6 60-7l60-2v23l-50-4-49-3 9 9c5 5 26 10 46 10l37 1 4 13 5 12h-24c-13 0-29-5-36-12l-12-12v11c0 6 16 25 36 42l35 32-4 22-4 22-2-18zm259-8-45-20-38-37c-21-20-49-58-62-83l-24-47-10-58-9-59 9-58c5-32 19-78 30-103l21-44 49-44 49-44 47-16c26-9 50-16 55-16h8v119l-21 6c-12 4-38 23-60 42l-38 34-12 37-12 37v56l1 56 21 40 20 41 38 31c21 17 43 31 50 31h13v120h-17c-10 0-38-10-63-21zm-275-59-6-10h15c9 0 16 5 16 10 0 6-4 10-9 10-6 0-13-4-16-10zm-345-70v-10h80v20h-80v-10zm-44-13c3-10 9-15 12-12s0 11-7 18l-12 12 7-18zm294-16v-10l48-4 47-3-47-2-48-2v-20h110v9c0 5 3 16 6 25l6 16h-122v-9zm-405-31 6-10-14 6-15 5-7-10-6-11h73l-12 15c-7 8-17 15-22 15h-9l6-10zm408-40-2-20 23-6c13-3 40-4 62-1l39 4-52 1-52 2-6 9-5 10 52-3 53-3-37 4-38 4v10c0 5-8 9-18 9h-18l-1-20zm70 13c9-2 23-2 30 0l12 5h-60l18-5zm-557-145v-123l-3 103-4 102h-19v-197l19-17 19-17 7 10c3 6 4 15 1 19-3 5-6 57-7 117l-2 110 37 1 36 2v-83l20 44c11 24 20 45 20 47s-28 4-62 4h-63l1-122zm36 90-12-12v-195l13-8c6-4 20-9 30-10l18-3-6 10c-3 6-6 55-6 109v100l-13 10-12 11-12-12zm15-165-3-58v230l3-57c2-32 2-84 0-115zm442 164 8-8 49 3 49 3-57 5-57 5 8-8zm-9-33v-16l15 12c9 7 18 10 21 7s-4-10-15-17l-21-11 2-82 2-82 3 72 4 72 52 3 52 3 1 25 1 25-4-22c-2-13-9-23-14-23h-9l-1 28-1 27-8-30-8-30-2 30-2 30-8-30-8-30-1 28-1 27h-50v-16zm-98-26-12-12 2-110 2-111 6 115 6 115 2-107 2-108h20v210h-21l6 10c8 14 2 13-13-2zm-431-8c-1-8-2-44-1-80l2-65 11-15 12-15-17 14-18 13-1 62v61l-10-25c-6-14-11-29-12-35-1-5-6-13-12-17l-10-8h13c6 0 12-4 12-10v-9l-14 5-13 5-7-16-6-16 35-30 35-31-1-22-2-21-4 22-4 23-30 21c-38 27-47 20-14-11l25-23-1-21-1-21-5 20c-5 22-32 55-43 55-4 0-10-9-13-20l-5-20 9 6 10 6 14-12c8-7 15-18 15-26v-13l-35 6-35 6v-23h101l20 10 19 11v50l-27 25-28 26 33-22c17-12 32-27 33-33v-12l9 20 8 20-19 20-18 20-4 80c-1 44-4 73-6 65zm-34-146c-3-3-12-4-19-1l-13 5 19 1c11 1 17-2 13-5zm583 115v-12l40 6 40 5v-18h-80v-91l10-20 11-19 37 1 37 1-31 7c-17 4-36 11-42 15l-12 7v89h70v-71l-15-6c-21-7-25-2-28 36-1 17-6 31-10 31h-8l3-37 3-38 33-3 32-3v131h-90v-11zm-418-71 3-53 78-2 78-1-13 15-12 15-3-8-3-9-55 3-55 4v88h-21l3-52zm29 30-1-28 33 1 32 2-27 4-27 4-4 22-4 22-2-27zm19 10v-18h40v35l-10-15-10-15-10 15-10 15v-17zm52-20 3-33-37 3-38 4v-23l43 3 42 3 3 38 3 37h-23l4-32zm238-48c0-46 2-81 4-79 8 7 10 149 3 156l-7 6v-83zm133 30-2-30h19v30c0 39-14 39-17 0zm-342-12c2-2 17-14 33-28s26-19 22-12l-7 12h8c5 0 14-5 21-12l12-12v54h-47c-25 0-44-1-42-2zm242-53v-50l4 28c2 15 2 37 0 50l-4 22v-50zm19-32 3-37-42-1c-23 0-45-4-49-8l-9-8 93 2 93 2 9-9 9-9-94 3-95 3v-16h200l-6 17-5 18h10c6 0 11 3 11 8v8l-38-4-38-4-24 21-25 20 12 1c6 0 15-4 18-10l6-10h79v20h-32l-33 1-19 14c-11 8-24 15-29 15h-9l4-37zm-632-47c0-2 11-6 25-8l24-5-5 8c-5 9-44 13-44 5z"/>
    </g>
    <g fill="#0fa0da" transform="matrix(.1 0 0 -.1 0 300)">
      <path d="M590 1511v-321h377l44 15c52 19 87 49 105 92l14 32v82l-15 28c-8 16-28 41-46 55l-31 26 25 20c13 11 30 33 37 50l13 30-5 49-5 48-22 32-23 31-41 23-42 22-192 3-193 4v-321zm374 180 26-24v-54l-21-19-21-19-119-3-119-4v154l114-4 114-3 26-24zm22-264 24-28v-46l-26-24-26-24-124-4-124-3v164l126-4 126-3 24-28zm427 371c-17-18-36-44-43-58l-13-25 29 25c16 14 33 31 37 38 4 6 13 12 19 12s-17-29-50-64c-34-35-63-69-63-75-3-20-5-26-17-48l-13-23 68 2 68 1-60 6-60 6 27 21c15 12 25 24 21 28-3 3-13 0-22-7l-16-12 14 18c7 9 15 17 16 17s20-14 41-31l39-31 12 29 12 28-13 20c-8 11-22 22-32 24l-18 3 30-27 29-27-33 22-33 22 12 14 11 14 26-20c34-27 43-15 9 13l-26 22 23 29 23 28 22-7c11-3 21-11 21-16 0-12-17-12-25 1l-6 10-14-13-13-12 10-12c6-7 15-13 20-13h10l-12 15-12 15h9c13 0 33-22 33-37 0-20-21-16-47 9l-23 21v-10c0-6 14-23 32-38l32-27 2-28c1-15 5-37 9-50l7-22 24 5 24 4v-8c0-4-10-10-22-12l-23-4 28-2 27-1 1 23 1 22 5-18 5-19-23-24-22-24 6-7 7-6 25 23c13 12 26 32 28 44l4 21 2-26 1-25-31-23c-17-13-28-25-25-28s21 6 40 21l35 26 4 22 4 23 1-25 1-25-41-32-40-33 28-1 29-1-25-8-25-8 23-1 23-1-6-10-6-10-10 5-9 6v-10c0-5 8-12 18-14l17-5-60-3-60-2 60-7 60-7-57-1-58-2v-10c0-6 3-9 8-9 4 1 26 1 50 0l42-1v-60h20v158l18 13 17 13-12-14-13-14v-161l10-15 10-15 1 103c1 56 2 108 3 115l2 12 12-2 11-3-5 15-6 15-10-6-10-7 7 22 6 21-26 26-26 26-49-4-50-3v17l61-4 61-4-18 13-19 14-42-3-43-3v7c0 4 24 9 53 11l52 3-52 2-53 2v40l43 2 42 1-45 7-45 6 40 5 40 6-37 1c-42 2-47 8-20 28l17 13-12 1c-19 0-16 20 2 20h16l-11 20-11 20h-95l-31-32zm97 8c0-2-13-6-30-8l-30-5v17h30c17 0 30-2 30-4zm-94-158 29-31-37 28c-39 28-45 35-30 35 5 0 21-14 38-32zm229-148c-10-11-23-20-28-20h-10l18 20c10 11 23 20 28 20h10l-18-20zm145 315c-7-9-11-18-8-20 3-3 11 1 18 10s11 18 8 20c-3 3-11-1-18-10zm20-20c-18-19-31-37-29-40 3-2 21 11 39 30s31 37 29 40c-3 2-21-11-39-30zm0-40c-18-19-31-37-29-40 3-2 23 13 44 35 22 22 35 40 29 40s-25-16-44-35zm-1-42-34-38 38 34c34 33 42 41 34 41-2 0-19-17-38-37zm-279-33v-10h80v20h-80v-10zm285 0-6-10h41v10c0 6-6 10-14 10s-18-4-21-10zm-329-13c3-10 9-15 12-12s0 11-7 18l-12 12 7-18zm294-17v-10h70v20h-70v-10zm-405-30 6-10-14 6-15 5-7-10-6-11h73l-12 15c-7 8-17 15-22 15h-9l6-10zm423 3c12-2 30-2 40 0l17 5-40-1h-40l23-4zm-8-33c19-13 30-13 30 0v10h-45l15-10zm-494-142v-123l-3 103-4 102h-19v-197l19-17 19-17 7 10c3 6 4 15 1 19-3 5-6 57-7 117l-2 110 37 1 36 2v-83l20 44c11 24 20 45 20 47s-28 4-62 4h-63l1-122zm494 112c8-5 24-10 34-10 26 0 18 6-19 14l-30 7 15-11zm-458-22-12-12v-195l13-8c6-4 20-9 30-10l18-3-6 10c-3 6-6 55-6 109v100l-13 10-12 11-12-12zm15-165-3-58v230l3-57c2-32 2-84 0-115zm433 131v-16l15 12c9 7 18 10 21 7s-3-12-15-19l-21-13 2-80 2-80 3 72 4 72 19 6 20 6v49h-50v-16zm62-4v-25l5 13c2 6 2 18 0 25l-5 12v-25zm-161-24-12-14 4-103 3-104 2 106 2 105 12 12c7 7 9 12 6 12s-11-6-17-14zm-430-6c-1-8-2-44-1-80l2-65 11-15 12-15-17 14-18 13-1 62v61l-10-25c-6-14-11-29-12-35-1-5-6-13-12-17l-10-8h13c6 0 12-4 12-10v-9l-14 5-13 5-7-16-6-16 35-30 35-31-1-22-2-21-4 22-4 23-30 21c-38 27-47 20-14-11l25-23-1-21-1-21-5 20c-5 22-32 55-43 55-4 0-10-9-13-20l-5-20 9 6 10 6 14-12c8-7 15-18 15-26v-13l-35 6-35 6v-23h101l20 10 19 11v50l-27 25-28 26 33-22c17-12 32-27 33-33v-12l9 20 8 20-19 20-18 20-4 80c-1 44-4 73-6 65zm-34-146c-3-3-12-4-19-1l-13 5 19 1c11 1 17-2 13-5zm480 139c-4-3-7-51-7-105v-98h20v105c0 105-1 111-13 98zm116-20c9-2 23-2 30 0l12 5h-60l18-5zm-431-75 3-53 78-2 78-1-13 15-12 15-3-8-3-9-55 3-55 4v88h-21l3-52zm29 30-1-28 33 1 32 2-27 4-27 4-4 22-4 22-2-27zm19 10v-18h40v35l-10-15-10-15-10 15-10 15v-17zm52-20 3-33-37 3-38 4v-23l43 3 42 3 3 38 3 37h-23l4-32zm238-48c0-46 2-81 4-79 8 7 10 149 3 156l-7 6v-83zm80 36c0-51 8-76 23-76h11l-12 12-12 12v85l23 4 22 4-27 2-28 1v-44zm21-8-1-37 11-6c16-11 17-3 4 40l-13 40-1-37zm-310-10c2-2 17-14 33-28s26-19 22-12l-7 12h8c5 0 14-5 21-12l12-12v54h-47c-25 0-44-1-42-2zm242-53v-50l4 28c2 15 2 37 0 50l-4 22v-50zm19-31 3-39h-42c-23 0-45-3-49-7l-7-8 64 1c35 1 75 5 89 9l25 8-21 1-21 1-18 20-18 20h11c6 0 14-4 17-10 3-5 15-10 26-10h19v10c0 6-7 10-15 10-9 0-27 8-41 17l-26 17 4-40zm-632-48c0-2 11-6 25-8l24-5-5 8c-5 9-44 13-44 5zm553-22c4-4 40-7 82-8l75-1v15h-163l6-6z"/>
    </g>
    <g fill="#0072be" transform="matrix(.1 0 0 -.1 0 300)">
      <path d="M590 1511v-321h377l44 15c52 19 87 49 105 92l14 32v82l-15 28c-8 16-28 41-46 55l-31 26 25 20c13 11 30 33 37 50l13 30-5 49-5 48-22 32-23 31-41 23-42 22-192 3-193 4v-321zm374 180 26-24v-54l-21-19-21-19-119-3-119-4v154l114-4 114-3 26-24zm22-264 24-28v-46l-26-24-26-24-124-4-124-3v164l126-4 126-3 24-28zm427 371c-17-18-36-44-43-58l-12-25 51 50c28 27 51 53 51 57 0 16-17 7-47-24zm-26-77c-32-33-57-63-57-66v-7l16 6 16 6 39-31c49-38 51-29 4 13-46 40-38 48 12 12l38-28-34 37-35 37 12 12 11 11 28-17 28-17-22 20c-28 23-29 37-6 50 10 5 15 12 12 15-3 4-31-21-62-53zm23-25c0-2 8-10 18-17l17-14-14 18c-13 16-21 21-21 13zm-82-73c-8-10-18-24-22-30l-7-13 68 2 68 1-59 6-58 6 20 18 21 19 12-8 12-7-7 11c-10 17-31 15-48-5zm-35-60c4-3 26-7 49-7l43-1-3-40-3-40 21 44c11 24 20 45 20 47s-30 4-67 4h-66l6-7zm11-133v-115l3 58c2 31 2 83 0 115l-3 57v-115zm-34 1v-100l10-6 10-6v211h-20v-99zm62-3-2-107 8-4 7-5-3 76c-4 135-9 150-10 40zm18 2c0-57 2-101 5-98 7 7 8 189 1 196-3 3-6-41-6-98zm-98-25-2-81 13-13 12-13-15 4-15 5-5 64-5 64-9-25c-5-14-8-27-7-29 2-2-3-8-11-12l-13-9h25v-33l34-37 34-38 5 18 5 19-15-6-15-6 3 14c1 8-1 21-4 29-4 8-8 49-10 90l-3 75-2-80zm132-35 1-55 23-3 22-3v21h-39l-4 48-4 47 1-55zm39 3c9-2 23-2 30 0l12 5h-60l18-5zm-13-24v-9h25c14 0 25 2 25 4s-11 6-25 8l-25 5v-8zm-220-9c0-5 5-10 10-10 6 0 10 5 10 10 0 6-4 10-10 10-5 0-10-4-10-10zm27-52c16-18 33-41 36-50l6-17-9-6-10-6v51h-19l6-30 6-30h-23v48l-25 16-25 16v-8c0-5 9-17 20-27s20-24 20-31v-13l-35 6-35 6v-23h89l26 12 25 11v45l-29 25c-17 14-27 28-24 31 4 3-2 6-12 6h-19l31-32zm-32-8c10-11 23-20 28-20h10l-18 20c-10 11-23 20-28 20h-10l18-20zm-37-57c6-2 18-2 25 0l12 5h-50l13-5z"/>
    </g>
  </g>
</svg>